# xmcd
#
# Track frame offsets:
#	150
#	15622
#	31400
#	44182
#	55795
#	68367
#	83560
#	88592
#	96817
#	104810
#	116815
#	130912
#	144437
#	158342
#	170267
#	186010
#	201252
#	213415
#	225780
#	240537
#	250395
#	263520
#
# Disc length: 3689 seconds
#
# Revision: 1
# Processed by: cddbd v1.5.1PL0 Copyright (c) Steve Scherf et al.
# Submitted via: CDex 1.50Beta5
#
DISCID=200e6716
DTITLE=Various Artist - ファイト！赤盤〜お母さんのアニソン〜
DYEAR=2003
DGENRE=Music
TTITLE0=大杉久美子/エースをねらえ！
TTITLE1=VIP/青春にかけろ！
TTITLE2=ミッチーとチャタラーズ/緑の陽だまり
TTITLE3=伊集加代子、ネリー・シュワルツ/おしえて
TTITLE4=藩　恵子/裸足のフローネ
TTITLE5=栗　葉子とザ・バイキング/ビッケは小さなバイキング
TTITLE6=スリー・グレイセス/魔法使いサリー
TTITLE7=岡田恭子/ひみつのアッコちゃん
TTITLE8=前川陽子/リボンの騎士
TTITLE9=堀江美都子/アクビ娘
TTITLE10=チータとみつばち合唱団/みつばちマーヤの冒険
TTITLE11=堀江美都子/けろっこデメタン
TTITLE12=藍　美代子/星の子チョビン
TTITLE13=山崎リナ/ぼくはカリメロ
TTITLE14=井上　望/おはよう！スパンク
TTITLE15=加茂晴美/ときめきトゥナイト
TTITLE16=松谷祐子/ラムのラブソング
TTITLE17=石川ひとみ/プリンプリン物語
TTITLE18=大場久美子/キラキラ星あげる
TTITLE19=麻里圭子、横田年昭とリオアルマ/サインはV
TTITLE20=大杉久美子/アタックNo.1
TTITLE21=宇野ゆう子/サザエさん
EXTD=
EXTT0=
EXTT1=
EXTT2=
EXTT3=
EXTT4=
EXTT5=
EXTT6=
EXTT7=
EXTT8=
EXTT9=
EXTT10=
EXTT11=
EXTT12=
EXTT13=
EXTT14=
EXTT15=
EXTT16=
EXTT17=
EXTT18=
EXTT19=
EXTT20=
EXTT21=
PLAYORDER=
